# xmcd CD database file
#
# Track frame offsets:
#	150
#	19407
#	37167
#	61290
#	80810
#	102395
#	121282
#	146370
#	167947
#	187870
#	208297
#	245634
#	268769
#	284734
#
# Disc length: 4191 seconds
#
# Revision: 0
# Processed by: cddbd v1.5.1PL0 Copyright (c) Steve Scherf et al.
# Submitted via: CdAid (MTCDDB.DLL V2003.12.21)
#
DISCID=df105d0e
DTITLE=Carlos Santana - The Best of Carlos Santana
DYEAR=2002
DGENRE=Meditative
TTITLE0=Jingo
TTITLE1=Evil ways
TTITLE2=Black magic woman
TTITLE3=Oye como va
TTITLE4=Samba pa ti
TTITLE5=She's not there
TTITLE6=no one to depend on
TTITLE7=Open invitation
TTITLE8=Hold on
TTITLE9=Bella
TTITLE10=Dance sister dance
TTITLE11=Europa
TTITLE12=Everybody's everything
TTITLE13=Soul sacrifice
EXTD=ID3G:  45 YEAR: 2002
EXTT0=
EXTT1=
EXTT2=
EXTT3=
EXTT4=
EXTT5=
EXTT6=
EXTT7=
EXTT8=
EXTT9=
EXTT10=
EXTT11=
EXTT12=
EXTT13=
PLAYORDER=
